# xmcd
#
# Track frame offsets:
#	225
#	13225
#	24487
#	39997
#	54242
#	66750
#	86765
#	98832
#	110375
#	122107
#
# Disc length: 1838 seconds
#
# Revision: 0
# Processed by: cddbd v1.5.1PL0 Copyright (c) Steve Scherf et al.
# Submitted via: dBpowerAMP V4.0
#
DISCID=7b072b0a
DTITLE=Kenny Rogers - Me and Bobbie McGee
DYEAR=1900
DGENRE=Country
TTITLE0=I Just Want to Give My Love To You
TTITLE1=Last Few Threads of Love
TTITLE2=Tell It All Brother
TTITLE3=I'm Going to Sing A Sad Song Suzie
TTITLE4=What am I Gonna Do
TTITLE5=Lay It Down
TTITLE6=Me and Bobby McGee
TTITLE7=Always Leaving Always Gone
TTITLE8=Calico Silver
TTITLE9=The Way it Used to Be
EXTD=
EXTT0=
EXTT1=
EXTT2=
EXTT3=
EXTT4=
EXTT5=
EXTT6=
EXTT7=
EXTT8=
EXTT9=
PLAYORDER=
